PathFileType	4	(X/Y/Z)	./resultDataOpenSim/trcMotMarkerGrf/sub10/qtm-03-06.trc
DataRate	CameraRate	NumFrames	NumMarkers	Units	OrigDataRate	OrigDataStartFrame	OrigNumFrames
250.000000	250.000000	8	24	m	250.000000	64	504
Frame#	Time	L.Toe.Tip			R.Toe.Tip			L.Ankle.Lat			R.Ankle.Lat			L.Ankle.Med			R.Ankle.Med			L.Heel			R.Heel			L.Knee.Lat			R.Knee.Lat			L.Knee.Med			R.Knee.Med			L.Thigh.Upper			R.Thigh.Upper			L.ASIS			R.ASIS			V.Sacral			L.Acromium			R.Acromium			C7			L.Elbow			R.Elbow			L.Wrist.Lat			R.Wrist.Lat
		X1	Y1	Z1	X2	Y2	Z2	X3	Y3	Z3	X4	Y4	Z4	X5	Y5	Z5	X6	Y6	Z6	X7	Y7	Z7	X8	Y8	Z8	X9	Y9	Z9	X10	Y10	Z10	X11	Y11	Z11	X12	Y12	Z12	X13	Y13	Z13	X14	Y14	Z14	X15	Y15	Z15	X16	Y16	Z16	X17	Y17	Z17	X18	Y18	Z18	X19	Y19	Z19	X20	Y20	Z20	X21	Y21	Z21	X22	Y22	Z22	X23	Y23	Z23	X24	Y24	Z24

64	0.252	-1.5281056	0.064791493	-0.20255668	-0.8353763	0.038616038	-0.031895842	-1.5099693	0.20233308	-0.23900861	-0.97636165	0.052395374	-0.0074625224	-1.4819234	0.1965475	-0.16119005	-0.95496295	0.080357457	-0.08966526	-1.540394	0.2554621	-0.18776774	-1.0256	0.029506433	-0.060137638	-1.1972165	0.41280464	-0.26472707	-0.94767249	0.44896529	0.034905554	-1.1750306	0.36605719	-0.15257317	-0.95497663	0.45928603	-0.092027106	-1.1361538	0.78605989	-0.27474132	-1.055864	0.85469494	0.10245988	-1.0620142	0.89604874	-0.22270767	-1.0138114	0.93547619	0.011288059	-1.2356679	0.92896884	-0.068128107	-1.0933902	1.3880672	-0.25447382	-1.1181914	1.3817696	0.071608112	-1.1929363	1.4119491	-0.10203925	-1.1621636	1.041614	-0.31510816	-1.2644558	1.0740714	0.097208844	-0.95153967	0.9117651	-0.25477178	-1.2449582	0.8461304	0.17432223
65	0.256	-1.5196231	0.067835334	-0.20393302	-0.83526744	0.038570473	-0.031962508	-1.4996399	0.20503543	-0.23904584	-0.97577239	0.052347807	-0.0073693245	-1.4718244	0.19850653	-0.16111902	-0.95481138	0.08030111	-0.089816256	-1.5291568	0.25819209	-0.18753729	-1.0256007	0.029501544	-0.060154037	-1.1858646	0.41252237	-0.26475637	-0.94549767	0.44896459	0.035192822	-1.1632252	0.36652586	-0.15240438	-0.95238023	0.45941424	-0.092011065	-1.129394	0.78639335	-0.27425591	-1.0503853	0.85501892	0.10317102	-1.0561023	0.89654043	-0.2222884	-1.0081075	0.93560884	0.011785351	-1.2300332	0.92920526	-0.067545837	-1.087786	1.388682	-0.25416494	-1.1125332	1.3823364	0.072112067	-1.1873734	1.4127287	-0.10154649	-1.157099	1.0424125	-0.31525822	-1.2573816	1.0737914	0.098464841	-0.94700518	0.91167884	-0.25547743	-1.236581	0.84591994	0.17551537
66	0.26	-1.5100941	0.070767019	-0.20521517	-0.83517469	0.03853055	-0.032041176	-1.4891973	0.2077284	-0.2390259	-0.9752382	0.052295433	-0.0072757731	-1.4615039	0.20057533	-0.16105953	-0.95466493	0.080243228	-0.089972408	-1.5186572	0.26079984	-0.18710664	-1.0256096	0.029495882	-0.060175775	-1.1743801	0.41233037	-0.26467059	-0.94385861	0.44898032	0.035579561	-1.1508434	0.36727198	-0.152402	-0.94967118	0.45958932	-0.092046804	-1.1227002	0.78683337	-0.27374203	-1.045111	0.85531215	0.10380067	-1.0502916	0.89712815	-0.22196202	-1.0024056	0.93573921	0.012273818	-1.2244398	0.92945739	-0.066995917	-1.0821655	1.3892971	-0.25388049	-1.1068687	1.3829197	0.072571626	-1.1816608	1.4135523	-0.10054533	-1.1520477	1.0432073	-0.31542194	-1.2503513	1.0734992	0.099765573	-0.94250554	0.91156754	-0.25621873	-1.2278864	0.84573559	0.17668822
67	0.264	-1.4996326	0.073479151	-0.20635576	-0.83510296	0.038494545	-0.03212931	-1.4786405	0.21037218	-0.23895435	-0.97490296	0.052271653	-0.0072289597	-1.4509145	0.20276218	-0.16101319	-0.95450947	0.080183399	-0.090132844	-1.5087699	0.2632901	-0.18657376	-1.0256234	0.029489465	-0.06020469	-1.1627932	0.41225157	-0.26450036	-0.94235569	0.44901195	0.035925737	-1.1380801	0.36824686	-0.15250716	-0.94681737	0.45979317	-0.092141223	-1.1160646	0.78734222	-0.27322686	-1.0401771	0.85554702	0.10431071	-1.0446021	0.8978038	-0.22174235	-0.9967436	0.93588377	0.012755875	-1.2188942	0.92973691	-0.066495087	-1.0765362	1.3899118	-0.25360578	-1.1011974	1.3835155	0.072988904	-1.1758121	1.4144143	-0.099034258	-1.1470105	1.0440077	-0.31559099	-1.2433476	1.0732155	0.10110084	-0.9380399	0.91143473	-0.25698179	-1.2188207	0.84560852	0.17786396
68	0.268	-1.4884051	0.075932913	-0.20730888	-0.83505257	0.038461179	-0.032224372	-1.4679612	0.2128976	-0.23886097	-0.97475362	0.052274262	-0.007228308	-1.4401534	0.20502717	-0.16093951	-0.95432926	0.080123469	-0.09029862	-1.4991576	0.26560399	-0.18608773	-1.0256393	0.029480503	-0.060234917	-1.151135	0.41231743	-0.26426508	-0.94056214	0.44903373	0.03612441	-1.1257202	0.36930703	-0.15244213	-0.94387786	0.46000564	-0.092252482	-1.1095067	0.78788886	-0.27275234	-1.035602	0.85571625	0.10469773	-1.0390198	0.89855625	-0.22162448	-0.99115186	0.93605512	0.013230992	-1.2134031	0.93004987	-0.06605877	-1.070912	1.3905286	-0.25333363	-1.0954913	1.3841296	0.073363396	-1.1699383	1.4152978	-0.097432079	-1.1419896	1.0448216	-0.31575903	-1.2363467	1.0729675	0.1024702	-0.93361561	0.91128161	-0.25776046	-1.2095193	0.84552866	0.17903675
69	0.272	-1.476585	0.078104106	-0.20803193	-0.83501442	0.038431019	-0.03231969	-1.4571535	0.21523828	-0.23876947	-0.97468964	0.052288386	-0.0072593905	-1.4293219	0.20730821	-0.16081805	-0.95412197	0.080064337	-0.090472366	-1.4894508	0.26769407	-0.18575137	-1.0256555	0.029467737	-0.06025971	-1.1394384	0.41255632	-0.26393914	-0.93842354	0.44900326	0.036189314	-1.1143965	0.37031111	-0.15197519	-0.94096399	0.46020627	-0.092325483	-1.1030517	0.78846268	-0.27233764	-1.0312266	0.85584657	0.10500626	-1.0334776	0.89938338	-0.22157256	-0.98563274	0.93626112	0.01370889	-1.2079664	0.93040248	-0.065694971	-1.0653038	1.3911515	-0.25306354	-1.0897555	1.3847735	0.073700488	-1.164171	1.4161777	-0.096244172	-1.1369888	1.0456492	-0.31592292	-1.2293245	1.0727696	0.10387567	-0.9292529	0.91110752	-0.25855938	-1.2002014	0.84545723	0.1801803
70	0.276	-1.4643272	0.079957966	-0.20848111	-0.83497665	0.038406324	-0.032405774	-1.4462115	0.21735218	-0.23867769	-0.97464235	0.052325231	-0.007342397	-1.418425	0.20954251	-0.16065494	-0.95390383	0.080005446	-0.090649783	-1.4793602	0.26956124	-0.18583534	-1.0256703	0.029452999	-0.06027945	-1.1277321	0.41297111	-0.2634958	-0.9362208	0.44887768	0.036234127	-1.1039189	0.37124162	-0.15116165	-0.93813899	0.4603767	-0.09233531	-1.096718	0.78907013	-0.27196678	-1.0268307	0.85598859	0.1053038	-1.0278711	0.90030729	-0.22152993	-0.98017888	0.93650579	0.014206075	-1.2025739	0.93079835	-0.065405665	-1.0597089	1.3917833	-0.25278954	-1.0840465	1.3854557	0.074014204	-1.1585537	1.4170395	-0.095598642	-1.1320128	1.0464941	-0.31607965	-1.2222714	1.0726115	0.10531364	-0.92497647	0.91091467	-0.25938286	-1.1910138	0.84536506	0.18124746
71	0.28	-1.4516949	0.0815064	-0.20866262	-0.83493696	0.038388891	-0.032477673	-1.4351341	0.21922771	-0.2385658	-0.974605	0.052424418	-0.0075313613	-1.4074135	0.21168727	-0.16045048	-0.95370217	0.079945529	-0.090819305	-1.468925	0.27123736	-0.18674171	-1.0256823	0.029439865	-0.06030201	-1.1160083	0.41353794	-0.26297029	-0.93414798	0.44865723	0.036334976	-1.0936035	0.37218831	-0.15024019	-0.93538738	0.46050517	-0.092287641	-1.0905172	0.7897218	-0.27160345	-1.022292	0.85618943	0.10563982	-1.0221157	0.90135497	-0.22144961	-0.97479482	0.93679186	0.0147316	-1.197214	0.93123916	-0.065198727	-1.0541174	1.3924259	-0.25249877	-1.0784276	1.3861798	0.074320861	-1.1530438	1.4178832	-0.09528191	-1.1270702	1.0473671	-0.31623441	-1.2152169	1.072464	0.10676828	-0.92078876	0.91070803	-0.26021886	-1.1820057	0.84525486	0.18217446
